<?xml version="1.0" standalone="no"?>
<!DOCTYPE svg PUBLIC "-//W3C//DTD SVG 20010904//EN"
 "http://www.w3.org/TR/2001/REC-SVG-20010904/DTD/svg10.dtd">
<svg version="1.0" xmlns="http://www.w3.org/2000/svg"
 width="512.000000pt" height="512.000000pt" viewBox="0 0 512.000000 512.000000"
 preserveAspectRatio="xMidYMid meet">
<metadata>
Created by potrace 1.11, written by Peter Selinger 2001-2013
</metadata>
<g transform="translate(0.000000,512.000000) scale(0.100000,-0.100000)"
fill="#000000" stroke="none">
<path d="M2460 4958 c-3 -3 -43 -8 -90 -12 -47 -3 -96 -8 -110 -10 -14 -2 -47
-8 -75 -12 -27 -4 -52 -8 -55 -9 -3 -1 -23 -5 -45 -10 -268 -54 -544 -166
-794 -323 -58 -36 -112 -71 -121 -78 -8 -7 -51 -41 -95 -75 -206 -162 -403
-372 -543 -580 -91 -137 -147 -246 -222 -434 -46 -116 -99 -322 -116 -450 -3
-22 -7 -51 -10 -65 -11 -66 -19 -196 -19 -305 0 -114 12 -311 19 -324 2 -3 6
-28 10 -56 3 -27 8 -61 11 -75 104 -533 379 -984 842 -1382 75 -64 279 -204
373 -256 209 -116 460 -216 660 -264 104 -25 93 -22 265 -53 115 -20 376 -26
520 -12 349 33 686 150 958 331 95 63 129 99 103 104 -9 2 -31 -4 -51 -14 -41
-19 -57 -12 -28 13 101 89 97 83 77 98 -18 13 -18 14 5 38 13 14 22 30 20 35
-2 4 -85 -31 -184 -79 -216 -106 -305 -137 -305 -106 0 8 -12 19 -27 26 -28
13 -28 13 -7 29 11 10 31 24 44 33 15 10 24 27 26 47 1 17 5 36 9 43 5 7 7 35
6 62 -2 57 -30 112 -64 123 -32 11 -113 12 -169 2 -45 -8 -52 -7 -73 14 -20
20 -23 30 -16 59 4 18 7 61 6 94 -3 89 -15 272 -21 335 -13 129 -76 198 -197
215 -157 23 -169 29 -191 98 -7 21 3 67 14 67 4 0 7 -8 7 -18 0 -74 24 -68 30
8 2 35 17 82 43 138 49 104 50 120 7 113 -4 -1 -6 19 -4 43 6 60 -19 112 -83
174 -48 45 -53 55 -56 98 -4 58 -29 87 -74 87 -52 0 -75 -34 -79 -120 -1 -6
-22 -33 -47 -59 -74 -74 -94 -110 -94 -165 0 -42 -3 -49 -20 -49 -24 0 -26
-20 -6 -63 39 -84 49 -116 52 -167 3 -30 7 -61 9 -68 7 -20 23 -14 33 16 l10
27 1 -28 c1 -36 -22 -80 -51 -99 -13 -9 -70 -25 -127 -36 -66 -14 -117 -30
-141 -46 -50 -33 -79 -95 -85 -182 -3 -38 -8 -98 -11 -134 -3 -36 -7 -97 -8
-136 -1 -58 -8 -81 -36 -137 -34 -66 -36 -67 -70 -62 -63 8 -126 9 -139 1 -13
-8 -86 -117 -93 -138 -5 -13 -109 34 -213 97 -227 137 -435 338 -583 564 -80
122 -76 114 -137 238 -83 170 -163 424 -181 578 -3 22 -8 51 -11 65 -3 14 -7
117 -8 230 -3 223 10 329 61 520 137 509 490 932 984 1180 185 93 430 171 638
203 105 16 364 19 462 6 109 -15 135 -19 160 -25 14 -3 34 -7 45 -8 11 -2 49
-11 85 -20 548 -145 1017 -517 1285 -1021 73 -139 86 -159 96 -143 31 50 -64
249 -232 480 -27 37 -49 70 -49 74 0 10 59 -31 101 -71 122 -115 237 -341 321
-630 15 -55 31 -116 34 -135 3 -19 9 -51 14 -70 5 -19 11 -55 14 -80 3 -25 9
-74 14 -110 10 -83 3 -289 -13 -385 -8 -50 -14 -88 -20 -130 -4 -22 -8 -47
-10 -55 -2 -8 -7 -29 -9 -46 -24 -136 -84 -321 -151 -459 -30 -60 -55 -117
-56 -125 -4 -38 0 -41 33 -24 36 19 43 25 79 74 56 77 121 245 169 439 29 117
35 143 45 216 3 22 8 51 10 65 3 14 7 45 10 70 3 25 8 61 11 80 3 19 7 107 8
195 2 88 6 161 10 163 17 7 24 -1 31 -35 5 -21 10 -45 12 -53 19 -81 18 -300
-3 -442 -2 -21 -7 -50 -9 -65 -7 -56 -17 -108 -21 -114 -2 -3 -6 -21 -9 -39
-47 -269 -254 -739 -388 -885 -83 -89 -147 -196 -147 -245 0 -37 9 -38 52 -3
33 28 42 37 109 110 53 57 189 239 189 252 0 6 5 11 10 11 6 0 10 5 10 11 0 6
9 23 19 38 19 26 93 170 124 241 164 373 228 845 172 1265 -13 94 -30 194 -39
223 -3 9 -7 28 -10 42 -20 116 -130 413 -206 555 -81 154 -192 314 -302 437
-73 83 -275 265 -319 288 -10 6 -23 16 -31 22 -19 18 -137 96 -248 163 -168
102 -409 206 -600 258 -95 26 -260 58 -269 52 -5 -3 -12 -2 -15 3 -2 4 -22 9
-43 10 -21 2 -51 5 -68 7 -52 7 -320 18 -325 13z m486 -318 c114 -17 159 -25
243 -44 138 -31 410 -157 555 -258 181 -125 286 -230 311 -308 6 -20 5 -23 -6
-14 -8 6 -79 62 -159 125 -193 152 -238 184 -339 234 -96 48 -177 85 -185 85
-2 0 -17 5 -33 12 -15 6 -30 12 -33 13 -3 0 -34 10 -70 22 -58 19 -109 32
-190 49 -36 7 -122 20 -190 29 -19 3 -54 7 -78 10 -24 4 -59 8 -79 10 -31 3
-59 22 -48 33 20 21 170 21 301 2z m8 -3315 c3 -17 8 -66 11 -110 3 -44 8 -95
10 -114 7 -48 -11 -109 -36 -116 -21 -7 -54 14 -58 38 -9 47 -6 160 5 202 13
47 54 138 60 132 2 -1 5 -16 8 -32z m-564 -53 c12 -31 23 -86 25 -123 6 -120
-24 -180 -79 -159 -48 18 -51 91 -11 275 1 6 5 27 10 48 10 49 26 36 55 -41z"/>
</g>
</svg>
